<svg aria-hidden="true" style="width:0;height:0;position:absolute;overflow:hidden" xmlns="http://www.w3.org/2000/svg"><defs><symbol id="star" viewBox="0 0 32 32"><path d="M7.251 20.528a12.347 12.347 0 0 1 13.277 3.932 12.347 12.347 0 0 1 3.932-13.277 12.347 12.347 0 0 1-13.277-3.932 12.347 12.347 0 0 1-3.932 13.277zm-1.773.721a11.915 11.915 0 0 0 4.61-15.568l.373-.203a11.917 11.917 0 0 0 15.568 4.611l.203.373a11.915 11.915 0 0 0-4.61 15.568l-.373.203a11.915 11.915 0 0 0-15.568-4.61l-.203-.373z"/><path d="M20.973 22.383c.298 1.024.455 1.867.469 2.479.007.306-.023.531-.073.684-.049.15-.106.197-.136.213s-.1.038-.253-.002c-.155-.041-.36-.139-.613-.311-.505-.345-1.127-.935-1.823-1.743-1.389-1.611-3.017-4.017-4.548-6.836s-2.662-5.495-3.257-7.537c-.298-1.024-.455-1.867-.469-2.479-.007-.306.023-.531.073-.684.049-.15.106-.197.136-.213s.1-.038.252.002c.155.041.36.138.613.311.505.345 1.127.935 1.823 1.743 1.389 1.611 3.017 4.017 4.548 6.836s2.662 5.495 3.257 7.537zm.462 3.748c1.234-.67-.264-5.814-3.346-11.489s-6.58-9.733-7.814-9.063c-1.234.67.264 5.814 3.346 11.489s6.58 9.733 7.814 9.063z"/><path d="M9.328 20.973c-1.024.298-1.867.455-2.479.469-.306.007-.531-.023-.684-.073-.15-.049-.197-.106-.213-.136s-.038-.1.002-.253c.041-.155.138-.36.311-.613.345-.505.935-1.127 1.743-1.823 1.611-1.389 4.017-3.017 6.836-4.548s5.495-2.662 7.537-3.257c1.024-.298 1.867-.455 2.479-.469.306-.007.531.023.684.073.15.049.197.106.213.136s.038.1-.002.253c-.041.155-.139.36-.311.613-.345.505-.935 1.127-1.743 1.823-1.611 1.389-4.017 3.017-6.836 4.548s-5.495 2.662-7.537 3.257zm-3.748.462c.67 1.234 5.814-.264 11.489-3.346s9.733-6.58 9.063-7.814c-.67-1.234-5.814.264-11.489 3.346s-9.733 6.58-9.063 7.814z"/></symbol><symbol id="facebook-icon" viewBox="0 0 32 32"><path d="M21.65 5.602h2.924V.655a40.727 40.727 0 0 0-4.262-.218c-4.231 0-7.124 2.582-7.124 7.311v4.076H8.412v5.538h4.776v14.187h5.724V17.362h4.76l.716-5.538h-5.476V8.293c0-1.633.436-2.691 2.738-2.691z"/></symbol><symbol id="instagram-icon" viewBox="0 0 32 32"><path d="M23.983 6.229a1.794 1.794 0 0 0-1.758 2.141 1.794 1.794 0 0 0 2.443 1.306 1.79 1.79 0 0 0 1.106-1.656 1.792 1.792 0 0 0-1.792-1.792zm6.869 3.614a11.33 11.33 0 0 0-.687-3.629 7.38 7.38 0 0 0-1.732-2.643 7.01 7.01 0 0 0-2.643-1.717 10.905 10.905 0 0 0-3.629-.702c-1.583-.09-2.091-.09-6.152-.09s-4.57 0-6.152.09a10.905 10.905 0 0 0-3.629.702 7.135 7.135 0 0 0-2.643 1.717 7.01 7.01 0 0 0-1.717 2.643 10.905 10.905 0 0 0-.702 3.629c-.09 1.583-.09 2.091-.09 6.153s0 4.57.09 6.152c.026 1.241.263 2.468.702 3.629.365 1 .952 1.904 1.717 2.643a7.135 7.135 0 0 0 2.643 1.717c1.161.439 2.388.676 3.629.702 1.583.09 2.091.09 6.152.09s4.57 0 6.152-.09a10.905 10.905 0 0 0 3.629-.702c1-.365 1.904-.952 2.643-1.717a7.243 7.243 0 0 0 1.732-2.643 11.33 11.33 0 0 0 .687-3.629c0-1.583.09-2.091.09-6.152s0-4.57-.09-6.153zm-2.688 12.126a8.39 8.39 0 0 1-.508 2.778 4.556 4.556 0 0 1-1.12 1.717 4.763 4.763 0 0 1-1.717 1.12 8.39 8.39 0 0 1-2.778.508c-1.493.075-2.046.09-5.973.09s-4.48 0-5.973-.09a8.566 8.566 0 0 1-2.897-.448 4.885 4.885 0 0 1-1.643-1.12 4.48 4.48 0 0 1-1.105-1.717 8.25 8.25 0 0 1-.597-2.837c0-1.493-.09-2.046-.09-5.973s0-4.48.09-5.973a8.281 8.281 0 0 1 .523-2.837 4.482 4.482 0 0 1 1.18-1.643 4.7 4.7 0 0 1 1.643-1.195 8.58 8.58 0 0 1 2.837-.508c1.493 0 2.046-.09 5.973-.09s4.48 0 5.973.09a8.39 8.39 0 0 1 2.778.508 4.56 4.56 0 0 1 1.777 1.195c.489.459.872 1.02 1.12 1.643a8.37 8.37 0 0 1 .508 2.837c.075 1.493.09 2.046.09 5.973s-.015 4.48-.09 5.973zM16.008 8.335a7.667 7.667 0 0 0-7.067 4.739 7.66 7.66 0 0 0 10.017 9.997 7.657 7.657 0 0 0 4.726-7.077 7.645 7.645 0 0 0-7.675-7.66zm0 12.634a4.979 4.979 0 0 1-4.595-3.07 4.975 4.975 0 0 1 3.624-6.78 4.974 4.974 0 0 1 5.564 6.781 4.965 4.965 0 0 1-2.691 2.691 4.97 4.97 0 0 1-1.903.379z"/></symbol><symbol id="youtube-icon" viewBox="0 0 32 32"><path d="M25.064 4.999c-1.496-.088-4.576-.176-9.24-.176h-.616c-4.488 0-7.48.088-8.976.264-2.024.176-3.432.704-4.224 1.408C1.304 7.111.776 8.255.6 9.751c-.088.968-.176 2.992-.176 6.072v.44c0 2.904.088 4.928.264 5.896.264 1.408.704 2.464 1.584 3.08.88.704 2.376 1.144 4.488 1.32 1.496.088 4.576.176 9.24.176h.616c4.488 0 7.48-.088 8.976-.264 2.024-.176 3.432-.704 4.224-1.408.704-.616 1.232-1.76 1.408-3.256.088-.968.176-2.992.176-6.072v-.44c0-2.904-.088-4.928-.264-5.896-.264-1.408-.704-2.464-1.584-3.08-.88-.704-2.376-1.144-4.488-1.32zm-3.432 10.824-9.68 5.808V10.015l9.68 5.808z"/></symbol><symbol id="search-icon" viewBox="0 0 32 32"><path d="m29.092 31.514-6.85-6.862c-1.077.935-2.334 1.663-3.77 2.185s-2.962.782-4.578.782c-3.877 0-7.163-1.349-9.855-4.046S0 17.621 0 13.809c0-3.812 1.346-7.067 4.039-9.764S9.999-.001 13.84-.001c3.806 0 7.046 1.349 9.721 4.046s4.012 5.952 4.012 9.764c0 1.546-.251 3.039-.754 4.477s-1.257 2.787-2.262 4.046l6.958 6.862c.323.288.485.656.485 1.106s-.18.854-.539 1.214c-.323.324-.718.486-1.185.486s-.862-.162-1.185-.486zM13.84 24.383c2.908 0 5.385-1.034 7.432-3.102s3.07-4.558 3.07-7.471-1.023-5.403-3.07-7.471c-2.046-2.068-4.524-3.102-7.432-3.102-2.944 0-5.448 1.034-7.513 3.102S3.23 10.897 3.23 13.81c0 2.913 1.032 5.403 3.097 7.471s4.569 3.102 7.513 3.102z"/></symbol><symbol id="heart-icon" viewBox="0 0 24 24" fill="none"><path d="M20.84 3.61a5.5 5.5 0 0 0-7.78 0L12 4.67l-1.06-1.06a5.501 5.501 0 1 0-7.78 7.78l1.06 1.06L12 20.23l7.78-7.78 1.06-1.06a5.5 5.5 0 0 0 0-7.78Z" stroke="#fff" stroke-width="2" stroke-linecap="round" stroke-linejoin="round"/></symbol><symbol id="trash-icon" viewBox="0 0 24 24" fill="none"><path d="M14 5v-.8c0-1.12 0-1.68-.218-2.108a2 2 0 0 0-.874-.874C12.48 1 11.92 1 10.8 1H9.2c-1.12 0-1.68 0-2.108.218a2 2 0 0 0-.874.874C6 2.52 6 3.08 6 4.2V5m2 5.5v5m4-5v5M1 5h18m-2 0v11.2c0 1.68 0 2.52-.327 3.162a3 3 0 0 1-1.311 1.311C14.72 21 13.88 21 12.2 21H7.8c-1.68 0-2.52 0-3.162-.327a3 3 0 0 1-1.311-1.311C3 18.72 3 17.88 3 16.2V5" stroke="#fff" stroke-width="2" stroke-linecap="round" stroke-linejoin="round"/></symbol><symbol id="x-icon" viewBox="0 0 22 22"><path d="m16.5 5.5-11 11M5.5 5.5l11 11" stroke-width="1.5" stroke-linecap="round" stroke-linejoin="round"/></symbol><symbol id="burger-icon" viewBox="0 0 32 32"><path stroke-linejoin="round" stroke-linecap="round" stroke-width="2" d="M28 13.333H4M28 8H4M28 18.667H4M28 24H4"/></symbol><symbol id="chevron-down-icon" fill="none" viewBox="0 0 14 8"><path d="m1 1 6 6 6-6" stroke-width="2" stroke-linecap="round" stroke-linejoin="round"/></symbol><symbol id="chevron-up-icon" fill="none" viewBox="0 0 14 8"><path d="m1 7 6-6 6 6" stroke-width="2" stroke-linecap="round" stroke-linejoin="round"/></symbol><symbol id="ellipse-turquoise" viewBox="0 0 32 32"><path fill="#9cdfdf" d="M32 16c0 8.837-7.163 16-16 16S0 24.837 0 16 7.163 0 16 0s16 7.163 16 16z" style="fill:var(--color1,#9cdfdf)"/></symbol><symbol id="ellipse-violet" viewBox="0 0 32 32"><path fill="#7e8fdd" d="M32 16c0 8.837-7.163 16-16 16S0 24.837 0 16 7.163 0 16 0s16 7.163 16 16z" style="fill:var(--color2,#7e8fdd)"/></symbol><svg id="page-left" viewBox="0 0 24 24"><g clip-path="url('#clip0_12857_1332')"><path d="M10.909 12.5 16 17.556 14.546 19 8 12.5 14.546 6 16 7.444 10.909 12.5Z"/></g></svg><svg id="page-right" viewBox="0 0 28 28"><g clip-path="url('#clip0_12857_1351')"><path d="m15.274 14.583-5.94 5.899 1.696 1.685 7.637-7.584L11.03 7 9.334 8.685l5.94 5.898Z"/></g></svg></defs></svg>