<svg aria-hidden="true" style="position: absolute; width: 0; height: 0; overflow: hidden;" version="1.1" xmlns="http://www.w3.org/2000/svg" xmlns:xlink="http://www.w3.org/1999/xlink">
<defs>

<symbol id="star" viewBox="0 0 32 32">
    <path d="M7.251 20.528c4.802-1.531 10.084 0.033 13.277 3.932-1.531-4.802 0.033-10.084 3.932-13.277-4.802 1.531-10.084-0.033-13.277-3.932 1.531 4.802-0.033 10.084-3.932 13.277zM5.478 21.249c5.381-3.177 7.394-9.972 4.61-15.568l0.373-0.203c3.177 5.381 9.972 7.394 15.568 4.611l0.203 0.373c-5.381 3.177-7.394 9.972-4.61 15.568l-0.373 0.203c-3.177-5.381-9.972-7.394-15.568-4.61l-0.203-0.373z"></path>
    <path d="M20.973 22.383c0.298 1.024 0.455 1.867 0.469 2.479 0.007 0.306-0.023 0.531-0.073 0.684-0.049 0.15-0.106 0.197-0.136 0.213s-0.1 0.038-0.253-0.002c-0.155-0.041-0.36-0.139-0.613-0.311-0.505-0.345-1.127-0.935-1.823-1.743-1.389-1.611-3.017-4.017-4.548-6.836s-2.662-5.495-3.257-7.537c-0.298-1.024-0.455-1.867-0.469-2.479-0.007-0.306 0.023-0.531 0.073-0.684 0.049-0.15 0.106-0.197 0.136-0.213s0.1-0.038 0.252 0.002c0.155 0.041 0.36 0.138 0.613 0.311 0.505 0.345 1.127 0.935 1.823 1.743 1.389 1.611 3.017 4.017 4.548 6.836s2.662 5.495 3.257 7.537zM21.435 26.131c1.234-0.67-0.264-5.814-3.346-11.489s-6.58-9.733-7.814-9.063c-1.234 0.67 0.264 5.814 3.346 11.489s6.58 9.733 7.814 9.063z"></path>
    <path d="M9.328 20.973c-1.024 0.298-1.867 0.455-2.479 0.469-0.306 0.007-0.531-0.023-0.684-0.073-0.15-0.049-0.197-0.106-0.213-0.136s-0.038-0.1 0.002-0.253c0.041-0.155 0.138-0.36 0.311-0.613 0.345-0.505 0.935-1.127 1.743-1.823 1.611-1.389 4.017-3.017 6.836-4.548s5.495-2.662 7.537-3.257c1.024-0.298 1.867-0.455 2.479-0.469 0.306-0.007 0.531 0.023 0.684 0.073 0.15 0.049 0.197 0.106 0.213 0.136s0.038 0.1-0.002 0.253c-0.041 0.155-0.139 0.36-0.311 0.613-0.345 0.505-0.935 1.127-1.743 1.823-1.611 1.389-4.017 3.017-6.836 4.548s-5.495 2.662-7.537 3.257zM5.58 21.435c0.67 1.234 5.814-0.264 11.489-3.346s9.733-6.58 9.063-7.814c-0.67-1.234-5.814 0.264-11.489 3.346s-9.733 6.58-9.063 7.814z"></path>
</symbol>

<symbol id="facebook-icon" viewBox="0 0 32 32">
    <path d="M21.65 5.602h2.924v-4.947c-1.416-0.147-2.839-0.22-4.262-0.218-4.231 0-7.124 2.582-7.124 7.311v4.076h-4.776v5.538h4.776v14.187h5.724v-14.187h4.76l0.716-5.538h-5.476v-3.531c0-1.633 0.436-2.691 2.738-2.691z"></path>
</symbol>
<symbol id="instagram-icon" viewBox="0 0 32 32">
    <path d="M23.983 6.229c-0.354 0-0.701 0.105-0.996 0.302s-0.524 0.477-0.66 0.804c-0.136 0.327-0.171 0.688-0.102 1.035s0.24 0.667 0.491 0.918c0.251 0.251 0.57 0.421 0.917 0.49s0.708 0.034 1.035-0.102c0.328-0.136 0.607-0.365 0.804-0.66s0.302-0.641 0.302-0.996c0-0.475-0.189-0.931-0.525-1.267s-0.792-0.525-1.267-0.525zM30.852 9.843c-0.029-1.239-0.261-2.465-0.687-3.629-0.38-0.996-0.971-1.898-1.732-2.643-0.739-0.765-1.643-1.353-2.643-1.717-1.161-0.439-2.388-0.676-3.629-0.702-1.583-0.090-2.091-0.090-6.152-0.090s-4.57 0-6.152 0.090c-1.241 0.026-2.468 0.263-3.629 0.702-0.998 0.368-1.901 0.955-2.643 1.717-0.765 0.739-1.353 1.643-1.717 2.643-0.439 1.161-0.676 2.388-0.702 3.629-0.090 1.583-0.090 2.091-0.090 6.153s0 4.57 0.090 6.152c0.026 1.241 0.263 2.468 0.702 3.629 0.365 1 0.952 1.904 1.717 2.643 0.742 0.762 1.645 1.349 2.643 1.717 1.161 0.439 2.388 0.676 3.629 0.702 1.583 0.090 2.091 0.090 6.152 0.090s4.57 0 6.152-0.090c1.241-0.026 2.468-0.263 3.629-0.702 1-0.365 1.904-0.952 2.643-1.717 0.765-0.743 1.356-1.645 1.732-2.643 0.426-1.164 0.658-2.39 0.687-3.629 0-1.583 0.090-2.091 0.090-6.152s0-4.57-0.090-6.153zM28.164 21.969c-0.011 0.948-0.183 1.887-0.508 2.778-0.238 0.65-0.621 1.237-1.12 1.717-0.484 0.493-1.070 0.876-1.717 1.12-0.891 0.325-1.83 0.497-2.778 0.508-1.493 0.075-2.046 0.090-5.973 0.090s-4.48 0-5.973-0.090c-0.984 0.018-1.964-0.133-2.897-0.448-0.619-0.257-1.178-0.638-1.643-1.12-0.496-0.48-0.874-1.068-1.105-1.717-0.365-0.903-0.567-1.864-0.597-2.837 0-1.493-0.090-2.046-0.090-5.973s0-4.48 0.090-5.973c0.007-0.969 0.184-1.929 0.523-2.837 0.263-0.63 0.666-1.192 1.18-1.643 0.454-0.513 1.014-0.921 1.643-1.195 0.91-0.328 1.87-0.5 2.837-0.508 1.493 0 2.046-0.090 5.973-0.090s4.48 0 5.973 0.090c0.948 0.011 1.887 0.183 2.778 0.508 0.679 0.252 1.288 0.661 1.777 1.195 0.489 0.459 0.872 1.020 1.12 1.643 0.332 0.909 0.504 1.869 0.508 2.837 0.075 1.493 0.090 2.046 0.090 5.973s-0.015 4.48-0.090 5.973zM16.008 8.335c-1.514 0.003-2.994 0.455-4.252 1.298s-2.237 2.041-2.815 3.441c-0.578 1.4-0.727 2.94-0.43 4.425s1.028 2.849 2.1 3.919c1.072 1.070 2.437 1.798 3.923 2.092s3.025 0.142 4.424-0.439c1.399-0.58 2.595-1.562 3.436-2.822s1.29-2.74 1.29-4.255c0.002-1.008-0.195-2.006-0.58-2.937s-0.951-1.777-1.664-2.489c-0.713-0.712-1.56-1.276-2.492-1.659s-1.931-0.579-2.939-0.575zM16.008 20.969c-0.983 0-1.945-0.292-2.763-0.838s-1.455-1.323-1.832-2.232c-0.376-0.909-0.475-1.909-0.283-2.873s0.665-1.851 1.361-2.546c0.695-0.695 1.582-1.169 2.546-1.361s1.965-0.093 2.873 0.283 1.685 1.014 2.232 1.832c0.546 0.818 0.838 1.779 0.838 2.763 0 0.653-0.129 1.3-0.379 1.903s-0.616 1.152-1.078 1.613c-0.462 0.462-1.010 0.828-1.613 1.078s-1.25 0.379-1.903 0.379z"></path>
</symbol>
<symbol id="youtube-icon" viewBox="0 0 32 32">
    <path d="M25.064 4.999c-1.496-0.088-4.576-0.176-9.24-0.176h-0.616c-4.488 0-7.48 0.088-8.976 0.264-2.024 0.176-3.432 0.704-4.224 1.408-0.704 0.616-1.232 1.76-1.408 3.256-0.088 0.968-0.176 2.992-0.176 6.072v0.44c0 2.904 0.088 4.928 0.264 5.896 0.264 1.408 0.704 2.464 1.584 3.080 0.88 0.704 2.376 1.144 4.488 1.32 1.496 0.088 4.576 0.176 9.24 0.176h0.616c4.488 0 7.48-0.088 8.976-0.264 2.024-0.176 3.432-0.704 4.224-1.408 0.704-0.616 1.232-1.76 1.408-3.256 0.088-0.968 0.176-2.992 0.176-6.072v-0.44c0-2.904-0.088-4.928-0.264-5.896-0.264-1.408-0.704-2.464-1.584-3.080-0.88-0.704-2.376-1.144-4.488-1.32zM21.632 15.823l-9.68 5.808v-11.616l9.68 5.808z"></path>
</symbol>

<symbol id="search-icon" viewBox="0 0 32 32">
<path d="M29.092 31.514l-6.85-6.862c-1.077 0.935-2.334 1.663-3.77 2.185s-2.962 0.782-4.578 0.782c-3.877 0-7.163-1.349-9.855-4.046s-4.039-5.952-4.039-9.764c0-3.812 1.346-7.067 4.039-9.764s5.96-4.046 9.801-4.046c3.806 0 7.046 1.349 9.721 4.046s4.012 5.952 4.012 9.764c0 1.546-0.251 3.039-0.754 4.477s-1.257 2.787-2.262 4.046l6.958 6.862c0.323 0.288 0.485 0.656 0.485 1.106s-0.18 0.854-0.539 1.214c-0.323 0.324-0.718 0.486-1.185 0.486s-0.862-0.162-1.185-0.486zM13.84 24.383c2.908 0 5.385-1.034 7.432-3.102s3.070-4.558 3.070-7.471-1.023-5.403-3.070-7.471c-2.046-2.068-4.524-3.102-7.432-3.102-2.944 0-5.448 1.034-7.513 3.102s-3.097 4.558-3.097 7.471c0 2.913 1.032 5.403 3.097 7.471s4.569 3.102 7.513 3.102z"></path>
</symbol>

<symbol id="heart-icon" viewBox="0 0 24 24" fill="none">
    <path d="M20.8401 3.60987C20.3294 3.09888 19.7229 2.69352 19.0555 2.41696C18.388 2.14039 17.6726 1.99805 16.9501 1.99805C16.2276 1.99805 15.5122 2.14039 14.8448 2.41696C14.1773 2.69352 13.5709 3.09888 13.0601 3.60987L12.0001 4.66987L10.9401 3.60987C9.90843 2.57818 8.50915 1.99858 7.05012 1.99858C5.59109 1.99858 4.19181 2.57818 3.16012 3.60987C2.12843 4.64156 1.54883 6.04084 1.54883 7.49987C1.54883 8.95891 2.12843 10.3582 3.16012 11.3899L4.22012 12.4499L12.0001 20.2299L19.7801 12.4499L20.8401 11.3899C21.3511 10.8791 21.7565 10.2727 22.033 9.60523C22.3096 8.93777 22.4519 8.22236 22.4519 7.49987C22.4519 6.77738 22.3096 6.06198 22.033 5.39452C21.7565 4.72706 21.3511 4.12063 20.8401 3.60987Z" stroke= "#fff" stroke-width="2" stroke-linecap="round" stroke-linejoin="round"/>
</symbol>
<symbol id="trash-icon" viewBox="0 0 24 24" fill="none">
    <path d="M14 5V4.2C14 3.0799 14 2.51984 13.782 2.09202C13.5903 1.71569 13.2843 1.40973 12.908 1.21799C12.4802 1 11.9201 1 10.8 1H9.2C8.07989 1 7.51984 1 7.09202 1.21799C6.71569 1.40973 6.40973 1.71569 6.21799 2.09202C6 2.51984 6 3.0799 6 4.2V5M8 10.5V15.5M12 10.5V15.5M1 5H19M17 5V16.2C17 17.8802 17 18.7202 16.673 19.362C16.3854 19.9265 15.9265 20.3854 15.362 20.673C14.7202 21 13.8802 21 12.2 21H7.8C6.11984 21 5.27976 21 4.63803 20.673C4.07354 20.3854 3.6146 19.9265 3.32698 19.362C3 18.7202 3 17.8802 3 16.2V5" stroke= "#fff" stroke-width="2" stroke-linecap="round" stroke-linejoin="round"/>
</symbol>

<symbol id="x-icon" viewBox="0 0 22 22">
<path d="M16.5 5.5L5.5 16.5" stroke-width="1.5" stroke-linecap="round" stroke-linejoin="round"/>
<path d="M5.5 5.5L16.5 16.5" stroke-width="1.5" stroke-linecap="round" stroke-linejoin="round"/>
</symbol>
<symbol id="burger-icon" viewBox="0 0 32 32">
    <path stroke-linejoin="round" stroke="#242424" stroke-linecap="round" stroke-miterlimit="4" stroke-width="2" d="M28 13.333h-24"></path>
    <path stroke-linejoin="round" stroke="#242424" stroke-linecap="round" stroke-miterlimit="4" stroke-width="2" d="M28 8h-24"></path>
    <path stroke-linejoin="round" stroke="#242424" stroke-linecap="round" stroke-miterlimit="4" stroke-width="2" d="M28 18.667h-24"></path>
    <path stroke-linejoin="round" stroke="#242424" stroke-linecap="round" stroke-miterlimit="4" stroke-width="2" d="M28 24h-24"></path>
</symbol>

  <symbol id="chevron-down-icon" fill="none" viewBox="0 0 14 8" >
    <path d="M1 1L7 7L13 1" stroke-width="2" stroke-linecap="round" stroke-linejoin="round"></path>
  </symbol>
  <symbol id="chevron-up-icon" fill="none" viewBox="0 0 14 8" >
    <path d="M1 7L7 1L13 7" stroke-width="2" stroke-linecap="round" stroke-linejoin="round"></path>
  </symbol>

</defs>
</svg>
